{"title":"JISM YEH KASOOR (JISM 2) 4K MASTERED [PhYsIcIaN].mp4","uid":11181330,"size":996390957,"categoryP":"video","categoryS":"other","magnet":"?xt=urn:btih:37fdb3ef333c0945e00c42d95884c48f72736039&amp;dn=JISM+YEH+KASOOR+%28JISM+2%29+4K+MASTERED+%5BPhYsIcIaN%5D.mp4&amp;tr=udp%3A%2F%2Ftracker.openbittorrent.com%3A80&amp;tr=udp%3A%2F%2Fopen.demonii.com%3A1337&amp;tr=udp%3A%2F%2Ftracker.coppersurfer.tk%3A6969&amp;tr=udp%3A%2F%2Fexodus.desync.com%3A6969","seeders":0,"leechers":2,"uploader":"physician","files":1,"time":1412864595,"description":"General\nComplete name                            : D:SONGSVIDEOTRUE HD4KJISM YEH KASOOR (JISM 2) 4K MASTERED [PhYsIcIaN].mp4\nFormat                                   : MPEG-4\nFormat profile                           : Base Media / Version 2\nCodec ID                                 : mp42\nFile size                                : 950 MiB\nDuration                                 : 5mn 45s\nOverall bit rate mode                    : Variable\nOverall bit rate                         : 23.1 Mbps\nEncoded date                             : UTC 2014-10-09 11:05:56\nTagged date                              : UTC 2014-10-09 11:07:05\nÂ©TIM                                     : 00:00:00:00\nÂ©TSC                                     : 24000\nÂ©TSZ                                     : 1001\n\nVideo\nID                                       : 1\nFormat                                   : AVC\nFormat/Info                              : Advanced Video Codec\nFormat profile                           : &lt;a class=&quot;__cf_email__&quot; href=&quot;/cdn-cgi/l/email-protection&quot; data-cfemail=&quot;1459757d7a5458213a25&quot;&gt;[email&amp;#160;protected]&lt;/a&gt;&lt;script cf-hash='f9e31' type=&quot;text/javascript&quot;&gt;\n/* &lt;![CDATA[ */!function(){try{var t=&quot;currentScript&quot;in document?document.currentScript:function(){for(var t=document.getElementsByTagName(&quot;script&quot;),e=t.length;e--;)if(t[e].getAttribute(&quot;cf-hash&quot;))return t[e]}();if(t&amp;&amp;t.previousSibling){var e,r,n,i,c=t.previousSibling,a=c.getAttribute(&quot;data-cfemail&quot;);if(a){for(e=&quot;&quot;,r=parseInt(a.substr(0,2),16),n=2;a.length-n;n+=2)i=parseInt(a.substr(n,2),16)^r,e+=String.fromCharCode(i);e=document.createTextNode(e),c.parentNode.replaceChild(e,c)}}}catch(u){}}();/* ]]&gt; */&lt;/script&gt;\nFormat settings, CABAC                   : Yes\nFormat settings, ReFrames                : 3 frames\nCodec ID                                 : avc1\nCodec ID/Info                            : Advanced Video Coding\nDuration                                 : 5mn 45s\nBit rate mode                            : Variable\nBit rate                                 : 22.6 Mbps\nMaximum bit rate                         : 25.0 Mbps\nWidth                                    : 3 840 pixels\nHeight                                   : 2 160 pixels\nDisplay aspect ratio                     : 16:9\nFrame rate mode                          : Constant\nFrame rate                               : 23.976 fps\nStandard                                 : NTSC\nColor space                              : YUV\nChroma subsampling                       : 4:2:0\nBit depth                                : 8 bits\nScan type                                : Progressive\nBits/(Pixel*Frame)                       : 0.114\nStream size                              : 929 MiB (98%)\nLanguage                                 : English\nEncoded date                             : UTC 2014-10-09 11:05:56\nTagged date                              : UTC 2014-10-09 11:05:56\n\nAudio\nID                                       : 2\nFormat                                   : AAC\nFormat/Info                              : Advanced Audio Codec\nFormat profile                           : LC\nCodec ID                                 : 40\nDuration                                 : 5mn 45s\nSource duration                          : 5mn 45s\nBit rate mode                            : Variable\nBit rate                                 : 509 Kbps\nMaximum bit rate                         : 653 Kbps\nChannel(s)                               : 6 channels\nChannel positions                        : Front: L C R, Side: L R, LFE\nSampling rate                            : 48.0 KHz\nCompression mode                         : Lossy\nStream size                              : 21.0 MiB (2%)\nSource stream size                       : 21.0 MiB (2%)\nLanguage                                 : English\nEncoded date                             : UTC 2014-10-09 11:05:56\nTagged date                              : UTC 2014-10-09 11:05:56\n &lt;a href=&quot;\nhttp://bayimg.com/caAfAAagP&quot; rel=&quot;nofollow&quot; target=&quot;_NEW&quot;&gt;\nhttp://bayimg.com/caAfAAagP&lt;/a&gt; &lt;a href=&quot;\nhttp://bayimg.com/caAfdaAGP&quot; rel=&quot;nofollow&quot; target=&quot;_NEW&quot;&gt;\nhttp://bayimg.com/caAfdaAGP&lt;/a&gt;","torrent":{"xt":"urn:btih:37fdb3ef333c0945e00c42d95884c48f72736039","amp;dn":"JISM+YEH+KASOOR+%28JISM+2%29+4K+MASTERED+%5BPhYsIcIaN%5D.mp4","amp;tr":["udp%3A%2F%2Ftracker.openbittorrent.com%3A80","udp%3A%2F%2Fopen.demonii.com%3A1337","udp%3A%2F%2Ftracker.coppersurfer.tk%3A6969","udp%3A%2F%2Fexodus.desync.com%3A6969"],"infoHash":"37fdb3ef333c0945e00c42d95884c48f72736039","infoHashBuffer":{"type":"Buffer","data":[55,253,179,239,51,60,9,69,224,12,66,217,88,132,196,143,114,115,96,57]},"announce":[],"urlList":[]}}